<svg width="18" height="16" viewBox="0 0 18 16" fill="none" xmlns="http://www.w3.org/2000/svg">
<path d="M15.7724 10H6.61163L6.81616 11H15.2042C15.6855 11 16.0422 11.4469 15.9356 11.9162L15.7632 12.6748C16.3473 12.9584 16.75 13.5571 16.75 14.25C16.75 15.2251 15.9525 16.0139 14.9743 15.9998C14.0423 15.9864 13.2758 15.2301 13.2507 14.2983C13.2369 13.7894 13.4408 13.3281 13.7758 13H7.22425C7.54853 13.3177 7.75 13.7602 7.75 14.25C7.75 15.2442 6.921 16.0447 5.91656 15.9981C5.02469 15.9567 4.29934 15.236 4.25247 14.3444C4.21628 13.6558 4.5786 13.0489 5.12906 12.7323L2.93384 2H0.75C0.335781 2 0 1.66422 0 1.25V0.75C0 0.335781 0.335781 0 0.75 0H3.95403C4.31031 0 4.61741 0.250656 4.68881 0.599687L4.97525 2H17.2497C17.731 2 18.0877 2.44691 17.981 2.91622L16.5038 9.41622C16.4262 9.75769 16.1226 10 15.7724 10Z" fill="#73777D"/>
</svg>
