<svg width="16" height="17" viewBox="0 0 16 17" fill="none" xmlns="http://www.w3.org/2000/svg">
<g clip-path="url(#clip0_696_1315)">
<path d="M12.6667 7.8335H3.33333C2.59695 7.8335 2 8.43045 2 9.16683V13.8335C2 14.5699 2.59695 15.1668 3.33333 15.1668H12.6667C13.403 15.1668 14 14.5699 14 13.8335V9.16683C14 8.43045 13.403 7.8335 12.6667 7.8335Z" stroke="#667085" stroke-width="2" stroke-linecap="round" stroke-linejoin="round"/>
<path d="M4.66675 7.8335V5.16683C4.66675 4.28277 5.01794 3.43493 5.64306 2.80981C6.26818 2.18469 7.11603 1.8335 8.00008 1.8335C8.88414 1.8335 9.73198 2.18469 10.3571 2.80981C10.9822 3.43493 11.3334 4.28277 11.3334 5.16683V7.8335" stroke="#667085" stroke-width="2" stroke-linecap="round" stroke-linejoin="round"/>
</g>
<defs>
<clipPath id="clip0_696_1315">
<rect width="16" height="16" fill="white" transform="translate(0 0.5)"/>
</clipPath>
</defs>
</svg>
