<svg width="221" height="76" viewBox="0 0 221 76" fill="none" xmlns="http://www.w3.org/2000/svg">
<g filter="url(#filter0_d_101_8)">
<path d="M216.716 11.7868L194.307 39.3866L189.935 59.9887L174.341 62.1152L178.23 41.7067L172.989 18.7082L190.127 14.3259L190.332 28.104L201.115 12.8275L216.716 11.7868Z" fill="#FF9100"/>
</g>
<g filter="url(#filter1_d_101_8)">
<path d="M171.858 58.7286L154.898 61.7517L154.744 54.5921L147.187 55.0346L143.694 62.4077L127.196 61.7877L151.203 18.1316L169.86 16.1511L171.858 58.7286ZM156.035 44.8103L156.342 33.7539L151.064 45.1014L156.035 44.8103ZM165.447 15.5213L161.933 9.25628L156.314 15.7389L149.785 13.1395C150.372 12.4496 151.086 11.6465 151.927 10.7302C152.773 9.79256 153.658 8.83147 154.581 7.84698C155.51 6.84102 156.447 5.84515 157.392 4.85936C158.343 3.85211 159.241 2.92192 160.088 2.06879L166.932 1.60461L173.53 10.9245L165.447 15.5213Z" fill="#FF9100"/>
</g>
<g filter="url(#filter2_d_101_8)">
<path d="M97.0968 38.4776L106.442 21.3221C109.196 21.0468 111.91 20.9893 114.582 21.1496C117.287 21.294 119.893 21.5823 122.402 22.0143C125.521 22.5515 128.172 23.4685 130.353 24.7653C132.535 26.062 134.164 27.6706 135.24 29.5911C136.316 31.5115 136.784 33.7128 136.644 36.195C136.526 38.6809 135.717 41.3797 134.215 44.2915C132.795 47.0458 131.119 49.467 129.187 51.5549C127.266 53.6231 125.15 55.4008 122.839 56.8879C120.56 58.3591 118.131 59.5473 115.55 60.4524C112.97 61.3575 110.315 62.0143 107.587 62.4227C104.869 62.8114 102.099 62.9772 99.2788 62.9198C96.4683 62.8428 93.6997 62.5695 90.9729 62.1C89.9477 61.9234 88.9543 61.7309 87.993 61.5225C87.0418 61.2944 86.0789 61.0429 85.1044 60.768L94.4141 43.5422L89.4146 42.874L92.0532 37.4805L97.0968 38.4776ZM119.825 43.8698C120.395 42.8112 120.792 41.7656 121.015 40.733C121.261 39.7043 121.26 38.7616 121.013 37.905C120.798 37.0326 120.327 36.2874 119.6 35.6696C118.884 35.0322 117.871 34.5792 116.56 34.3107L112.385 41.3031L115.626 41.9257L113.627 46.0797L109.936 45.637L105.817 52.3821C107.217 52.4304 108.604 52.2515 109.977 51.8453C111.36 51.4195 112.657 50.8395 113.867 50.1054C115.109 49.3553 116.211 48.4847 117.173 47.4937C118.167 46.4868 118.98 45.4165 119.612 44.283L119.825 43.8698Z" fill="#FF9100"/>
</g>
<g filter="url(#filter3_d_101_8)">
<path d="M21.4414 23.7986C21.3555 25.145 21.2767 26.477 21.2051 27.7947C21.1335 29.1124 21.0404 30.4445 20.9258 31.7908L11.8164 32.2635V34.9705H19.7227L19.293 41.6307L11.7734 41.8455L11.8164 54.5643L0.945312 54.7791L1.63281 23.7986H21.4414ZM48.6621 38.3221C48.6621 39.6255 48.5117 40.8859 48.2109 42.1033C47.9102 43.3065 47.4733 44.438 46.9004 45.4979C46.3418 46.5578 45.6543 47.5317 44.8379 48.4197C44.0358 49.2934 43.1263 50.0454 42.1094 50.6756C41.1068 51.3058 40.0111 51.7999 38.8223 52.158C37.6335 52.5018 36.373 52.6736 35.041 52.6736C33.752 52.6736 32.5202 52.5089 31.3457 52.1795C30.1855 51.8501 29.097 51.3917 28.0801 50.8045C27.0632 50.2029 26.1393 49.4868 25.3086 48.6561C24.4922 47.811 23.7904 46.88 23.2031 45.8631C22.6302 44.8318 22.179 43.729 21.8496 42.5545C21.5345 41.38 21.377 40.1554 21.377 38.8807C21.377 37.6346 21.5273 36.4171 21.8281 35.2283C22.1289 34.0252 22.5586 32.8937 23.1172 31.8338C23.6901 30.7739 24.3776 29.7999 25.1797 28.9119C25.9818 28.0239 26.877 27.2576 27.8652 26.6131C28.8678 25.9686 29.9492 25.4673 31.1094 25.1092C32.2695 24.7511 33.4941 24.5721 34.7832 24.5721C36.86 24.5721 38.7507 24.8943 40.4551 25.5389C42.1738 26.1834 43.6348 27.1072 44.8379 28.3104C46.0553 29.4992 46.9935 30.9458 47.6523 32.6502C48.3255 34.3403 48.6621 36.2309 48.6621 38.3221ZM39.123 38.8807C39.123 38.2648 39.0299 37.6704 38.8438 37.0975C38.6719 36.5102 38.4141 35.9946 38.0703 35.5506C37.7266 35.0923 37.2969 34.727 36.7812 34.4549C36.2799 34.1684 35.6999 34.0252 35.041 34.0252C34.3678 34.0252 33.7663 34.147 33.2363 34.3904C32.7064 34.6339 32.248 34.9705 31.8613 35.4002C31.4889 35.8156 31.2025 36.3097 31.002 36.8826C30.8014 37.4412 30.7012 38.0356 30.7012 38.6658C30.7012 39.2674 30.7871 39.869 30.959 40.4705C31.1309 41.0721 31.3887 41.6164 31.7324 42.1033C32.0762 42.5903 32.4987 42.9842 33 43.285C33.5156 43.5858 34.11 43.7361 34.7832 43.7361C35.4564 43.7361 36.0579 43.6072 36.5879 43.3494C37.1322 43.0773 37.5905 42.7192 37.9629 42.2752C38.3353 41.8169 38.6217 41.2941 38.8223 40.7068C39.0228 40.1196 39.123 39.5109 39.123 38.8807ZM76.7207 38.3221C76.7207 39.6255 76.5703 40.8859 76.2695 42.1033C75.9688 43.3065 75.5319 44.438 74.959 45.4979C74.4004 46.5578 73.7129 47.5317 72.8965 48.4197C72.0944 49.2934 71.1849 50.0454 70.168 50.6756C69.1654 51.3058 68.0697 51.7999 66.8809 52.158C65.6921 52.5018 64.4316 52.6736 63.0996 52.6736C61.8105 52.6736 60.5788 52.5089 59.4043 52.1795C58.2441 51.8501 57.1556 51.3917 56.1387 50.8045C55.1217 50.2029 54.1979 49.4868 53.3672 48.6561C52.5508 47.811 51.849 46.88 51.2617 45.8631C50.6888 44.8318 50.2376 43.729 49.9082 42.5545C49.5931 41.38 49.4355 40.1554 49.4355 38.8807C49.4355 37.6346 49.5859 36.4171 49.8867 35.2283C50.1875 34.0252 50.6172 32.8937 51.1758 31.8338C51.7487 30.7739 52.4362 29.7999 53.2383 28.9119C54.0404 28.0239 54.9355 27.2576 55.9238 26.6131C56.9264 25.9686 58.0078 25.4673 59.168 25.1092C60.3281 24.7511 61.5527 24.5721 62.8418 24.5721C64.9186 24.5721 66.8092 24.8943 68.5137 25.5389C70.2324 26.1834 71.6934 27.1072 72.8965 28.3104C74.1139 29.4992 75.0521 30.9458 75.7109 32.6502C76.3841 34.3403 76.7207 36.2309 76.7207 38.3221ZM67.1816 38.8807C67.1816 38.2648 67.0885 37.6704 66.9023 37.0975C66.7305 36.5102 66.4727 35.9946 66.1289 35.5506C65.7852 35.0923 65.3555 34.727 64.8398 34.4549C64.3385 34.1684 63.7585 34.0252 63.0996 34.0252C62.4264 34.0252 61.8249 34.147 61.2949 34.3904C60.765 34.6339 60.3066 34.9705 59.9199 35.4002C59.5475 35.8156 59.2611 36.3097 59.0605 36.8826C58.86 37.4412 58.7598 38.0356 58.7598 38.6658C58.7598 39.2674 58.8457 39.869 59.0176 40.4705C59.1895 41.0721 59.4473 41.6164 59.791 42.1033C60.1348 42.5903 60.5573 42.9842 61.0586 43.285C61.5742 43.5858 62.1686 43.7361 62.8418 43.7361C63.515 43.7361 64.1165 43.6072 64.6465 43.3494C65.1908 43.0773 65.6491 42.7192 66.0215 42.2752C66.3939 41.8169 66.6803 41.2941 66.8809 40.7068C67.0814 40.1196 67.1816 39.5109 67.1816 38.8807ZM102.566 37.7205C102.566 39.7257 102.309 41.5233 101.793 43.1131C101.277 44.7029 100.554 46.1137 99.623 47.3455C98.7064 48.563 97.6107 49.6014 96.3359 50.4608C95.0612 51.3201 93.6647 52.0291 92.1465 52.5877C90.6283 53.132 89.0098 53.533 87.291 53.7908C85.5866 54.0486 83.832 54.1776 82.0273 54.1776C81.3542 54.1776 80.6953 54.1632 80.0508 54.1346C79.4062 54.0916 78.7474 54.0343 78.0742 53.9627L78.6758 25.9901C80.2513 25.4887 81.8698 25.1378 83.5312 24.9373C85.207 24.7225 86.8685 24.6151 88.5156 24.6151C90.5638 24.6151 92.4473 24.9015 94.166 25.4744C95.8848 26.0473 97.3672 26.8924 98.6133 28.0096C99.8594 29.1124 100.826 30.4803 101.514 32.1131C102.215 33.7316 102.566 35.6007 102.566 37.7205ZM87.957 45.9705C88.8164 45.8416 89.597 45.5838 90.2988 45.1971C91.015 44.796 91.6309 44.3091 92.1465 43.7361C92.6621 43.1489 93.056 42.4901 93.3281 41.7596C93.6146 41.0148 93.7578 40.227 93.7578 39.3963C93.7578 38.5799 93.6719 37.8208 93.5 37.119C93.3281 36.4028 93.0488 35.7869 92.6621 35.2713C92.2754 34.7414 91.7669 34.326 91.1367 34.0252C90.5065 33.7101 89.7331 33.5382 88.8164 33.5096L87.957 45.9705Z" fill="white"/>
</g>
<defs>
<filter id="filter0_d_101_8" x="161.327" y="10.6742" width="59.5799" height="60.6702" filterUnits="userSpaceOnUse" color-interpolation-filters="sRGB">
<feFlood flood-opacity="0" result="BackgroundImageFix"/>
<feColorMatrix in="SourceAlpha" type="matrix" values="0 0 0 0 0 0 0 0 0 0 0 0 0 0 0 0 0 0 127 0" result="hardAlpha"/>
<feOffset dy="4"/>
<feGaussianBlur stdDeviation="2"/>
<feComposite in2="hardAlpha" operator="out"/>
<feColorMatrix type="matrix" values="0 0 0 0 0 0 0 0 0 0 0 0 0 0 0 0 0 0 0.25 0"/>
<feBlend mode="normal" in2="BackgroundImageFix" result="effect1_dropShadow_101_8"/>
<feBlend mode="normal" in="SourceGraphic" in2="effect1_dropShadow_101_8" result="shape"/>
</filter>
<filter id="filter1_d_101_8" x="122.79" y="0.455688" width="67.7652" height="70.9417" filterUnits="userSpaceOnUse" color-interpolation-filters="sRGB">
<feFlood flood-opacity="0" result="BackgroundImageFix"/>
<feColorMatrix in="SourceAlpha" type="matrix" values="0 0 0 0 0 0 0 0 0 0 0 0 0 0 0 0 0 0 127 0" result="hardAlpha"/>
<feOffset dy="4"/>
<feGaussianBlur stdDeviation="2"/>
<feComposite in2="hardAlpha" operator="out"/>
<feColorMatrix type="matrix" values="0 0 0 0 0 0 0 0 0 0 0 0 0 0 0 0 0 0 0.25 0"/>
<feBlend mode="normal" in2="BackgroundImageFix" result="effect1_dropShadow_101_8"/>
<feBlend mode="normal" in="SourceGraphic" in2="effect1_dropShadow_101_8" result="shape"/>
</filter>
<filter id="filter2_d_101_8" x="76.3057" y="18.4755" width="71.496" height="57.0116" filterUnits="userSpaceOnUse" color-interpolation-filters="sRGB">
<feFlood flood-opacity="0" result="BackgroundImageFix"/>
<feColorMatrix in="SourceAlpha" type="matrix" values="0 0 0 0 0 0 0 0 0 0 0 0 0 0 0 0 0 0 127 0" result="hardAlpha"/>
<feOffset dy="4"/>
<feGaussianBlur stdDeviation="2"/>
<feComposite in2="hardAlpha" operator="out"/>
<feColorMatrix type="matrix" values="0 0 0 0 0 0 0 0 0 0 0 0 0 0 0 0 0 0 0.25 0"/>
<feBlend mode="normal" in2="BackgroundImageFix" result="effect1_dropShadow_101_8"/>
<feBlend mode="normal" in="SourceGraphic" in2="effect1_dropShadow_101_8" result="shape"/>
</filter>
<filter id="filter3_d_101_8" x="0.945312" y="21.7986" width="105.621" height="34.9805" filterUnits="userSpaceOnUse" color-interpolation-filters="sRGB">
<feFlood flood-opacity="0" result="BackgroundImageFix"/>
<feColorMatrix in="SourceAlpha" type="matrix" values="0 0 0 0 0 0 0 0 0 0 0 0 0 0 0 0 0 0 127 0" result="hardAlpha"/>
<feOffset dx="2"/>
<feGaussianBlur stdDeviation="1"/>
<feComposite in2="hardAlpha" operator="out"/>
<feColorMatrix type="matrix" values="0 0 0 0 0 0 0 0 0 0 0 0 0 0 0 0 0 0 0.5 0"/>
<feBlend mode="normal" in2="BackgroundImageFix" result="effect1_dropShadow_101_8"/>
<feBlend mode="normal" in="SourceGraphic" in2="effect1_dropShadow_101_8" result="shape"/>
</filter>
</defs>
</svg>
